<svg width="14" height="14" viewBox="0 0 14 14" fill="none" xmlns="http://www.w3.org/2000/svg">
<path d="M4.77972 4.50513L6.44769 1.12817C6.54795 0.909424 6.72113 0.800049 6.96722 0.800049C7.21332 0.800049 7.38649 0.909424 7.48675 1.12817L9.15472 4.50513L12.8871 5.052C13.1241 5.08846 13.2791 5.22062 13.352 5.44849C13.4249 5.67635 13.3748 5.87687 13.2016 6.05005L10.5082 8.67505L11.1508 12.3801C11.1873 12.6171 11.1052 12.8085 10.9047 12.9543C10.7133 13.1002 10.5128 13.1139 10.3032 12.9954L6.96722 11.2454L3.63128 12.9954C3.42165 13.1139 3.21657 13.1002 3.01605 12.9543C2.82464 12.8085 2.74717 12.6171 2.78363 12.3801L3.42621 8.67505L0.732847 6.05005C0.55967 5.87687 0.50954 5.67635 0.582456 5.44849C0.655373 5.22062 0.810321 5.08846 1.0473 5.052L4.77972 4.50513Z" fill="#00C362"/>
</svg>
